<?xml version="1.0" encoding="utf-8"?>
<svg viewBox="4.6172 189.9202 324.3059 112.1568" xmlns="http://www.w3.org/2000/svg">
  <path id="path32292" style="stroke-linejoin: round; stroke: rgb(0, 0, 0); stroke-width: 4.0614; stroke-linecap: round; fill: rgb(255, 255, 255); transform-origin: 68.0003px 1056.58px;" d="M 91.857 973.104 C 93.882 973.104 103.644 1137.275 89.471 1140.053 C 93.198 1131.987 88.987 1129.208 83.311 1126.697 C 75.281 1121.14 55.413 1123.919 48.611 1129.208 C 42.368 1131.987 39.596 1137.275 42.568 1142.832 C 34.236 1142.832 42.812 970.325 44.493 970.325" transform="matrix(0.018689004704, 1.222663998604, 1.234138965607, -0.018864000216, 43.609779373055, -806.276804186088)"/>
  <path id="path32294" style="stroke-linejoin: round; stroke: rgb(0, 0, 0); stroke-width: 4.0614; stroke-linecap: round; fill: rgb(255, 255, 255); transform-origin: 66.4408px 1183.83px;" d="M 21.354 1183.08 C 20.497 1166.99 35.247 1142.832 52.718 1137.275 C 61.74 1134.765 82.044 1134.765 89.212 1140.053 C 101.49 1148.077 107.69 1158.922 110.5 1175.012 C 111.49 1180.57 111.74 1185.858 111.45 1191.147 C 110.426 1210.016 104.232 1223.641 90.844 1220.861 C 86.755 1236.951 61.938 1234.442 61.819 1220.861 C 49.154 1236.951 30.731 1223.641 38.305 1204.727 C 35.499 1204.727 22.249 1199.483 21.354 1183.08 Z" transform="matrix(0.018689004704, 1.222663998604, 1.234138965607, -0.018864000216, 202.181298339428, -937.831497945177)"/>
  <path id="path32296" style="stroke-width: 5.781; fill: rgb(0, 0, 0); transform-origin: 62.2931px 1211.56px;" d="M 63.9 1220.861 C 67.829 1210.016 66.255 1204.727 66.383 1199.483 C 64.113 1207.505 63.748 1210.016 60.714 1218.083 C 60.197 1220.861 59.517 1220.861 57.997 1223.641 L 64.115 1223.641 C 64.157 1223.641 63.757 1223.641 63.9 1220.861 Z" transform="matrix(0.018689004705, 1.222663998604, 1.234138965607, -0.018864000216, 240.481401323418, -971.161838330416)"/>
  <path id="path32298" style="stroke-width: 5.781; fill: rgb(0, 0, 0); transform-origin: 91.5562px 1211.56px;" d="M 92.465 1223.641 C 93.976 1215.573 94.986 1207.505 93.416 1199.483 C 92.645 1204.727 89.943 1215.573 88.908 1220.861 C 88.895 1220.861 88.92 1220.861 92.465 1223.641 Z" transform="matrix(0.018689004704, 1.222663998604, 1.234138965607, -0.018864000216, 211.765173656781, -935.382867227162)"/>
  <path id="path32300" style="stroke-linejoin: round; stroke: rgb(0, 0, 0); stroke-width: 4.0614; stroke-linecap: round; fill: none; transform-origin: 82.2395px 1154.89px;" d="M 79.642 1145.566 C 83.678 1156.143 83.618 1158.922 84.837 1164.211" transform="matrix(0.018689004704, 1.222663998603, 1.234138965607, -0.018864000216, 150.964822381056, -889.031506104705)"/>
  <path id="path32302" style="stroke-linejoin: round; stroke: rgb(0, 0, 0); stroke-width: 4.0614; stroke-linecap: round; fill: none; transform-origin: 71.188px 1157.67px;" d="M 70.26 1145.566 C 71.953 1156.143 71.685 1164.211 72.116 1169.768" transform="matrix(0.018689004703, 1.222663998604, 1.234138965607, -0.018864000216, 165.238763296664, -905.374630265652)"/>
  <path id="path32304" style="stroke-linejoin: round; stroke: rgb(0, 0, 0); stroke-width: 4.0614; stroke-linecap: round; fill: none; transform-origin: 58.5217px 1153.63px;" d="M 59.041 1145.566 C 59.139 1153.634 58.443 1156.143 57.993 1161.702" transform="matrix(0.018689004702, 1.222663998604, 1.234138965606, -0.018864000216, 172.691146313497, -916.752266636077)"/>
  <path id="path32306" style="stroke-width: 5.781; fill: rgb(0, 0, 0); transform-origin: 36.2844px 1191.26px;" d="M 36.025 1207.505 C 39.917 1191.147 34.824 1183.08 31.438 1175.012 C 36.583 1183.08 43.578 1185.858 40.279 1207.505 L 36.025 1207.505 Z" transform="matrix(0.018689004705, 1.222663998604, 1.234138965607, -0.018864000216, 240.946733882404, -982.275279019544)"/>
</svg>