<?xml version="1.0" encoding="utf-8"?>
<svg viewBox="6.6229 192.9832 324.5219 112.1728" xmlns="http://www.w3.org/2000/svg">
  <path id="path32292" style="stroke-linejoin:round;stroke:#000000;stroke-width:4.0614;stroke-linecap:round;fill:#ffffff" d="M 91.857 1232.959 C 93.882 1233.053 103.644 1066.558 89.471 1065.9 C 93.198 1072 88.987 1075.9 83.311 1078.8 C 75.281 1082.9 55.413 1080.9 48.611 1076.8 C 42.368 1073 39.596 1067.342 42.568 1062.442 C 34.236 1063.057 42.812 1234.148 44.493 1234.024" transform="matrix(0.018689002841711044, 1.2226639986038208, 1.2341389656066895, -0.018864000216126442, -1193.6255590649187, 187.09158378809568)"/>
  <path id="path32294" style="stroke-linejoin:round;stroke:#000000;stroke-width:4.0614;stroke-linecap:round;fill:#ffffff" d="m21.354 1021c-0.857 15.7 13.893 40.3 31.364 46.1 9.022 2.9 29.326 3.8 36.494-1.5 12.278-9 18.478-20.7 21.288-35.1 0.99-5.1 1.24-10.9 0.95-15.7-1.0243-19.615-7.2183-34.207-20.606-31.93-4.0887-16.074-28.906-12.222-29.025 0.06-12.665-14.242-31.088-0.95682-23.514 16.06-2.806 2.21-16.056 5.71-16.951 22.01z" transform="matrix(0.018689002841711044, 1.2226639986038208, 1.2341389656066895, -0.018864000216126442, -1193.6255590649187, 187.09158378809568)"/>
  <path id="path32296" style="stroke-width:5.781;fill:#000000" d="m63.9 983.51c3.9293 12.412 2.3553 17.577 2.4826 21.002-2.2696-7.8785-2.6348-9.9348-5.6681-18.124-0.5176-1.3926-1.1975-2.8019-2.7174-4.358l6.1176-0.90089c0.04218-0.30077-0.35752 1.4647-0.21472 2.3804z" transform="matrix(0.018689002841711044, 1.2226639986038208, 1.2341389656066895, -0.018864000216126442, -1193.6255590649187, 187.09158378809568)"/>
  <path id="path32298" style="stroke-width:5.781;fill:#000000" d="m92.465 981.32c1.5115 7.49 2.5208 16.87 0.95082 23.069-0.77062-4.1308-3.4725-14.678-4.5081-20.921-0.01285 0.002 0.01246 0.0116 3.5573-2.1484z" transform="matrix(0.018689002841711044, 1.2226639986038208, 1.2341389656066895, -0.018864000216126442, -1193.6255590649187, 187.09158378809568)"/>
  <path id="path32300" style="stroke-linejoin:round;stroke:#000000;stroke-width:4.0614;stroke-linecap:round;fill:none" d="m79.642 1058.3c4.036-9.7 3.976-12.5 5.195-17.4" transform="matrix(0.018689002841711044, 1.2226639986038208, 1.2341389656066895, -0.018864000216126442, -1193.6255590649187, 187.09158378809568)"/>
  <path id="path32302" style="stroke-linejoin:round;stroke:#000000;stroke-width:4.0614;stroke-linecap:round;fill:none" d="m70.26 1059c1.693-11.5 1.425-17.2 1.856-24.9" transform="matrix(0.018689002841711044, 1.2226639986038208, 1.2341389656066895, -0.018864000216126442, -1193.6255590649187, 187.09158378809568)"/>
  <path id="path32304" style="stroke-linejoin:round;stroke:#000000;stroke-width:4.0614;stroke-linecap:round;fill:none" d="m59.041 1059.5c0.098-8-0.598-11.8-1.048-16.8" transform="matrix(0.018689002841711044, 1.2226639986038208, 1.2341389656066895, -0.018864000216126442, -1193.6255590649187, 187.09158378809568)"/>
  <path id="path32306" style="stroke-width:5.781;fill:#000000" d="m36.025 998.02c3.892 16.78-1.201 23.38-4.587 31.88 5.145-8.8 12.14-11.8 8.841-31.41l-4.254-0.47z" transform="matrix(0.018689002841711044, 1.2226639986038208, 1.2341389656066895, -0.018864000216126442, -1193.6255590649187, 187.09158378809568)"/>
</svg>