<?xml version="1.0" encoding="utf-8"?>
<svg viewBox="6.1029 159.3871 471.5993 171.225" xmlns="http://www.w3.org/2000/svg">
  <g id="layer1" transform="matrix(-1.3860750198364258, 0, 0, 1.3530280590057373, 1172.0850830078125, -376.58978271484375)" style="">
    <g id="imagebot_10" transform="matrix(-0.057143, 1.229758, -1.229758, -0.057143, 274.720978, -395.141144)" style="transform-origin: 66.4408px 1006.63px;">
      <path id="imagebot_18" style="stroke-linejoin: round; stroke: rgb(0, 0, 0); stroke-width: 4.0614; stroke-linecap: round; fill: rgb(255, 255, 255); transform-box: fill-box; transform-origin: 50% 50%;" d="M -36.33 876.723 C -36.299 876.724 -40.201 742.336 -46.371 742.1 C -42.644 748.2 -46.855 752.1 -52.531 755 C -60.561 759.1 -80.429 757.1 -87.231 753 C -93.474 749.2 -96.244 743.7 -93.272 738.8 C -103.134 749.866 -84.692 880.894 -84.692 880.894"/>
      <path id="imagebot_17" style="stroke-linejoin: round; stroke: rgb(0, 0, 0); stroke-width: 4.0614; stroke-linecap: round; fill: rgb(255, 255, 255); transform-box: fill-box; transform-origin: 50% 50%;" d="M -114.488 697.201 C -115.345 712.901 -100.595 737.501 -83.124 743.301 C -74.102 746.201 -53.798 747.101 -46.63 741.801 C -34.352 732.801 -28.152 721.101 -25.342 706.701 C -24.352 701.601 -24.102 695.801 -24.392 691.001 C -25.681 673.437 -39.22 663.115 -44.998 659.071 C -45.18 647.621 -44.021 633.821 -42.182 620.851 C -39.431 601.451 -66.523 606.341 -68.914 624.541 C -70.033 633.061 -71.97 640.051 -74.023 659.131 C -77.168 648.851 -82.454 634.091 -84.228 623.891 C -87.153 607.061 -111.285 617.151 -107.276 637.651 C -104.545 651.611 -100.206 661.891 -97.537 675.191 C -100.343 677.401 -113.593 680.901 -114.488 697.201 Z"/>
      <path id="imagebot_16" style="stroke-width:5.781;fill:#000000" d="M -76.266 658.74 C -73.229 671.4 -68.775 677.2 -67.117 680.2 C -69.237 672.28 -69.985 670.33 -71.611 661.75 C -71.886 660.29 -71.967 658.55 -71.727 656.42 L -76.266 658.74 Z"/>
      <path id="imagebot_15" style="stroke-width: 5.781; fill: rgb(0, 0, 0); transform-box: fill-box; transform-origin: 50% 50%;" d="M -47.027 659.17 C -46.901 666.81 -44.916 675.98 -42.056 681.7 C -42.362 673.428 -42.612 666.897 -43.087 659.024 C -43.108 659.024 -45.048 659.174 -47.027 659.174 L -47.027 659.17 Z"/>
      <path id="imagebot_14" style="stroke-linejoin: round; stroke: rgb(0, 0, 0); stroke-width: 4.0614; stroke-linecap: round; fill: none; transform-box: fill-box; transform-origin: 50% 50%;" d="M -56.2 734.5 C -52.164 724.8 -52.224 722 -51.005 717.1"/>
      <path id="imagebot_13" style="stroke-linejoin: round; stroke: rgb(0, 0, 0); stroke-width: 4.0614; stroke-linecap: round; fill: none; transform-box: fill-box; transform-origin: 50% 50%;" d="M -65.582 735.2 C -63.889 723.7 -64.157 718 -63.726 710.3"/>
      <path id="imagebot_12" style="stroke-linejoin: round; stroke: rgb(0, 0, 0); stroke-width: 4.0614; stroke-linecap: round; fill: none; transform-box: fill-box; transform-origin: 50% 50%;" d="M -76.801 735.7 C -76.703 727.7 -77.399 723.9 -77.849 718.9"/>
      <path id="imagebot_11" style="stroke-width: 5.781; fill: rgb(0, 0, 0); transform-box: fill-box; transform-origin: 50% 50%;" d="M -99.817 674.22 C -95.925 691 -101.018 697.6 -104.404 706.1 C -99.259 697.3 -92.264 694.3 -95.563 674.69 L -99.817 674.22 Z"/>
    </g>
  </g>
</svg>